<?xml version="1.0" encoding="UTF-8" standalone="no"?>
<!DOCTYPE svg PUBLIC "-//W3C//DTD SVG 1.1//EN"
 "http://www.w3.org/Graphics/SVG/1.1/DTD/svg11.dtd">
<!-- Generated by graphviz version 2.40.1 (20161225.0304)
 -->
<!-- Title: ml Pages: 1 -->
<svg width="862pt" height="1540pt"
 viewBox="0.00 0.00 861.89 1540.00" xmlns="http://www.w3.org/2000/svg" xmlns:xlink="http://www.w3.org/1999/xlink">
<g id="graph0" class="graph" transform="scale(1 1) rotate(0) translate(4 1536)">
<title>ml</title>
<polygon fill="#ffffff" stroke="transparent" points="-4,4 -4,-1536 857.8934,-1536 857.8934,4 -4,4"/>
<!-- ML -->
<g id="node1" class="node">
<title>ML</title>
<path fill="#e57e25" stroke="#666666" stroke-width="1.2" d="M127.71,-478C127.71,-478 11.7628,-478 11.7628,-478 5.7628,-478 -.2372,-472 -.2372,-466 -.2372,-466 -.2372,-454 -.2372,-454 -.2372,-448 5.7628,-442 11.7628,-442 11.7628,-442 127.71,-442 127.71,-442 133.71,-442 139.71,-448 139.71,-454 139.71,-454 139.71,-466 139.71,-466 139.71,-472 133.71,-478 127.71,-478"/>
<text text-anchor="middle" x="69.7364" y="-456.7" font-family="Helvetica,sans-Serif" font-size="11.00" fill="#ffffff">Aprendizado de Máquina</text>
</g>
<!-- SUP -->
<g id="node2" class="node">
<title>SUP</title>
<path fill="#cfe9cf" stroke="#666666" d="M284.5367,-1056C284.5367,-1056 216.9386,-1056 216.9386,-1056 210.9386,-1056 204.9386,-1050 204.9386,-1044 204.9386,-1044 204.9386,-1032 204.9386,-1032 204.9386,-1026 210.9386,-1020 216.9386,-1020 216.9386,-1020 284.5367,-1020 284.5367,-1020 290.5367,-1020 296.5367,-1026 296.5367,-1032 296.5367,-1032 296.5367,-1044 296.5367,-1044 296.5367,-1050 290.5367,-1056 284.5367,-1056"/>
<text text-anchor="middle" x="250.7377" y="-1034.7" font-family="Helvetica,sans-Serif" font-size="11.00" fill="#333333">Supervisionado</text>
</g>
<!-- ML&#45;&gt;SUP -->
<g id="edge1" class="edge">
<title>ML&#45;&gt;SUP</title>
<path fill="none" stroke="#888888" stroke-width="1.1" d="M75.4524,-478.253C101.9712,-562.937 213,-917.4904 243.1529,-1013.7793"/>
<polygon fill="#888888" stroke="#888888" stroke-width="1.1" points="241.2232,-1014.6443 245.0203,-1019.7426 245.2312,-1013.3892 241.2232,-1014.6443"/>
</g>
<!-- UNS -->
<g id="node3" class="node">
<title>UNS</title>
<path fill="#ffd778" stroke="#666666" d="M297.9264,-546C297.9264,-546 203.5489,-546 203.5489,-546 197.5489,-546 191.5489,-540 191.5489,-534 191.5489,-534 191.5489,-522 191.5489,-522 191.5489,-516 197.5489,-510 203.5489,-510 203.5489,-510 297.9264,-510 297.9264,-510 303.9264,-510 309.9264,-516 309.9264,-522 309.9264,-522 309.9264,-534 309.9264,-534 309.9264,-540 303.9264,-546 297.9264,-546"/>
<text text-anchor="middle" x="250.7377" y="-524.7" font-family="Helvetica,sans-Serif" font-size="11.00" fill="#333333">Não Supervisionado</text>
</g>
<!-- ML&#45;&gt;UNS -->
<g id="edge2" class="edge">
<title>ML&#45;&gt;UNS</title>
<path fill="none" stroke="#888888" stroke-width="1.1" d="M117.7662,-478.0442C142.2055,-487.2258 171.9886,-498.4149 197.168,-507.8745"/>
<polygon fill="#888888" stroke="#888888" stroke-width="1.1" points="196.4424,-509.8452 202.7977,-509.9895 197.9196,-505.9135 196.4424,-509.8452"/>
</g>
<!-- SEMI -->
<g id="node4" class="node">
<title>SEMI</title>
<path fill="#cfcfd3" stroke="#666666" d="M298.7529,-376C298.7529,-376 202.7224,-376 202.7224,-376 196.7224,-376 190.7224,-370 190.7224,-364 190.7224,-364 190.7224,-352 190.7224,-352 190.7224,-346 196.7224,-340 202.7224,-340 202.7224,-340 298.7529,-340 298.7529,-340 304.7529,-340 310.7529,-346 310.7529,-352 310.7529,-352 310.7529,-364 310.7529,-364 310.7529,-370 304.7529,-376 298.7529,-376"/>
<text text-anchor="middle" x="250.7377" y="-354.7" font-family="Helvetica,sans-Serif" font-size="11.00" fill="#333333">Semi&#45;Supervisionado</text>
</g>
<!-- ML&#45;&gt;SEMI -->
<g id="edge3" class="edge">
<title>ML&#45;&gt;SEMI</title>
<path fill="none" stroke="#888888" stroke-width="1.1" d="M101.6791,-441.9992C132.763,-424.4825 179.9984,-397.8638 212.938,-379.3013"/>
<polygon fill="#888888" stroke="#888888" stroke-width="1.1" points="214.3092,-380.9391 218.5054,-376.1639 212.2472,-377.2801 214.3092,-380.9391"/>
</g>
<!-- REIN -->
<g id="node5" class="node">
<title>REIN</title>
<path fill="#b9cdf3" stroke="#666666" d="M309.7681,-206C309.7681,-206 191.7072,-206 191.7072,-206 185.7072,-206 179.7072,-200 179.7072,-194 179.7072,-194 179.7072,-182 179.7072,-182 179.7072,-176 185.7072,-170 191.7072,-170 191.7072,-170 309.7681,-170 309.7681,-170 315.7681,-170 321.7681,-176 321.7681,-182 321.7681,-182 321.7681,-194 321.7681,-194 321.7681,-200 315.7681,-206 309.7681,-206"/>
<text text-anchor="middle" x="250.7377" y="-184.7" font-family="Helvetica,sans-Serif" font-size="11.00" fill="#333333">Aprendizado por Reforço</text>
</g>
<!-- ML&#45;&gt;REIN -->
<g id="edge4" class="edge">
<title>ML&#45;&gt;REIN</title>
<path fill="none" stroke="#888888" stroke-width="1.1" d="M81.8935,-441.731C113.7721,-393.8253 199.7525,-264.618 235.1678,-211.3976"/>
<polygon fill="#888888" stroke="#888888" stroke-width="1.1" points="237.0578,-212.3481 238.6335,-206.1895 233.5612,-210.0212 237.0578,-212.3481"/>
</g>
<!-- CLC -->
<g id="node6" class="node">
<title>CLC</title>
<path fill="#cfe9cf" stroke="#666666" d="M490.2388,-1328C490.2388,-1328 425.8003,-1328 425.8003,-1328 419.8003,-1328 413.8003,-1322 413.8003,-1316 413.8003,-1316 413.8003,-1304 413.8003,-1304 413.8003,-1298 419.8003,-1292 425.8003,-1292 425.8003,-1292 490.2388,-1292 490.2388,-1292 496.2388,-1292 502.2388,-1298 502.2388,-1304 502.2388,-1304 502.2388,-1316 502.2388,-1316 502.2388,-1322 496.2388,-1328 490.2388,-1328"/>
<text text-anchor="middle" x="458.0196" y="-1306.7" font-family="Helvetica,sans-Serif" font-size="11.00" fill="#333333">Classificação</text>
</g>
<!-- SUP&#45;&gt;CLC -->
<g id="edge5" class="edge">
<title>SUP&#45;&gt;CLC</title>
<path fill="none" stroke="#888888" stroke-width="1.1" d="M264.6599,-1056.269C301.2409,-1104.2715 400.0297,-1233.9044 440.4341,-1286.924"/>
<polygon fill="#888888" stroke="#888888" stroke-width="1.1" points="438.8509,-1288.3111 444.1579,-1291.8105 442.1914,-1285.7654 438.8509,-1288.3111"/>
</g>
<!-- RGR -->
<g id="node7" class="node">
<title>RGR</title>
<path fill="#cfe9cf" stroke="#666666" d="M482.3589,-1056C482.3589,-1056 433.6802,-1056 433.6802,-1056 427.6802,-1056 421.6802,-1050 421.6802,-1044 421.6802,-1044 421.6802,-1032 421.6802,-1032 421.6802,-1026 427.6802,-1020 433.6802,-1020 433.6802,-1020 482.3589,-1020 482.3589,-1020 488.3589,-1020 494.3589,-1026 494.3589,-1032 494.3589,-1032 494.3589,-1044 494.3589,-1044 494.3589,-1050 488.3589,-1056 482.3589,-1056"/>
<text text-anchor="middle" x="458.0196" y="-1034.7" font-family="Helvetica,sans-Serif" font-size="11.00" fill="#333333">Regressão</text>
</g>
<!-- SUP&#45;&gt;RGR -->
<g id="edge6" class="edge">
<title>SUP&#45;&gt;RGR</title>
<path fill="none" stroke="#888888" stroke-width="1.1" d="M296.7402,-1038C332.1093,-1038 380.61,-1038 415.1662,-1038"/>
<polygon fill="#888888" stroke="#888888" stroke-width="1.1" points="415.45,-1040.1001 421.45,-1038 415.45,-1035.9001 415.45,-1040.1001"/>
</g>
<!-- CLU -->
<g id="node17" class="node">
<title>CLU</title>
<path fill="#ffd778" stroke="#666666" d="M516.9223,-784C516.9223,-784 399.1168,-784 399.1168,-784 393.1168,-784 387.1168,-778 387.1168,-772 387.1168,-772 387.1168,-760 387.1168,-760 387.1168,-754 393.1168,-748 399.1168,-748 399.1168,-748 516.9223,-748 516.9223,-748 522.9223,-748 528.9223,-754 528.9223,-760 528.9223,-760 528.9223,-772 528.9223,-772 528.9223,-778 522.9223,-784 516.9223,-784"/>
<text text-anchor="middle" x="458.0196" y="-762.7" font-family="Helvetica,sans-Serif" font-size="11.00" fill="#333333">Agrupamento (Clustering)</text>
</g>
<!-- UNS&#45;&gt;CLU -->
<g id="edge16" class="edge">
<title>UNS&#45;&gt;CLU</title>
<path fill="none" stroke="#888888" stroke-width="1.1" d="M266.6585,-546.2803C304.0527,-589.2161 397.4094,-696.4077 438.3047,-743.3635"/>
<polygon fill="#888888" stroke="#888888" stroke-width="1.1" points="436.8039,-744.8379 442.3282,-747.9832 439.9711,-742.0794 436.8039,-744.8379"/>
</g>
<!-- ASC -->
<g id="node18" class="node">
<title>ASC</title>
<path fill="#ffd778" stroke="#666666" d="M486.1948,-580C486.1948,-580 429.8443,-580 429.8443,-580 423.8443,-580 417.8443,-574 417.8443,-568 417.8443,-568 417.8443,-556 417.8443,-556 417.8443,-550 423.8443,-544 429.8443,-544 429.8443,-544 486.1948,-544 486.1948,-544 492.1948,-544 498.1948,-550 498.1948,-556 498.1948,-556 498.1948,-568 498.1948,-568 498.1948,-574 492.1948,-580 486.1948,-580"/>
<text text-anchor="middle" x="458.0196" y="-558.7" font-family="Helvetica,sans-Serif" font-size="11.00" fill="#333333">Associação</text>
</g>
<!-- UNS&#45;&gt;ASC -->
<g id="edge17" class="edge">
<title>UNS&#45;&gt;ASC</title>
<path fill="none" stroke="#888888" stroke-width="1.1" d="M310.1363,-537.743C342.3023,-543.0191 381.4676,-549.4434 411.4103,-554.3548"/>
<polygon fill="#888888" stroke="#888888" stroke-width="1.1" points="411.393,-556.4799 417.6539,-555.3789 412.0729,-552.3353 411.393,-556.4799"/>
</g>
<!-- ANO -->
<g id="node19" class="node">
<title>ANO</title>
<path fill="#ffd778" stroke="#666666" d="M516.0985,-512C516.0985,-512 399.9406,-512 399.9406,-512 393.9406,-512 387.9406,-506 387.9406,-500 387.9406,-500 387.9406,-488 387.9406,-488 387.9406,-482 393.9406,-476 399.9406,-476 399.9406,-476 516.0985,-476 516.0985,-476 522.0985,-476 528.0985,-482 528.0985,-488 528.0985,-488 528.0985,-500 528.0985,-500 528.0985,-506 522.0985,-512 516.0985,-512"/>
<text text-anchor="middle" x="458.0196" y="-490.7" font-family="Helvetica,sans-Serif" font-size="11.00" fill="#333333">Detecção de Anomalias</text>
</g>
<!-- UNS&#45;&gt;ANO -->
<g id="edge18" class="edge">
<title>UNS&#45;&gt;ANO</title>
<path fill="none" stroke="#888888" stroke-width="1.1" d="M310.1363,-518.257C332.5243,-514.5847 358.303,-510.3563 382.0027,-506.4689"/>
<polygon fill="#888888" stroke="#888888" stroke-width="1.1" points="382.399,-508.532 387.98,-505.4884 381.7191,-504.3874 382.399,-508.532"/>
</g>
<!-- SS_C -->
<g id="node28" class="node">
<title>SS_C</title>
<path fill="#cfcfd3" stroke="#666666" d="M490.2388,-376C490.2388,-376 425.8003,-376 425.8003,-376 419.8003,-376 413.8003,-370 413.8003,-364 413.8003,-364 413.8003,-352 413.8003,-352 413.8003,-346 419.8003,-340 425.8003,-340 425.8003,-340 490.2388,-340 490.2388,-340 496.2388,-340 502.2388,-346 502.2388,-352 502.2388,-352 502.2388,-364 502.2388,-364 502.2388,-370 496.2388,-376 490.2388,-376"/>
<text text-anchor="middle" x="458.0196" y="-354.7" font-family="Helvetica,sans-Serif" font-size="11.00" fill="#333333">Classificação</text>
</g>
<!-- SEMI&#45;&gt;SS_C -->
<g id="edge27" class="edge">
<title>SEMI&#45;&gt;SS_C</title>
<path fill="none" stroke="#888888" stroke-width="1.1" d="M310.9706,-358C341.6591,-358 378.5452,-358 407.697,-358"/>
<polygon fill="#888888" stroke="#888888" stroke-width="1.1" points="407.7952,-360.1001 413.7952,-358 407.7952,-355.9001 407.7952,-360.1001"/>
</g>
<!-- SS_R -->
<g id="node29" class="node">
<title>SS_R</title>
<path fill="#cfcfd3" stroke="#666666" d="M482.3589,-308C482.3589,-308 433.6802,-308 433.6802,-308 427.6802,-308 421.6802,-302 421.6802,-296 421.6802,-296 421.6802,-284 421.6802,-284 421.6802,-278 427.6802,-272 433.6802,-272 433.6802,-272 482.3589,-272 482.3589,-272 488.3589,-272 494.3589,-278 494.3589,-284 494.3589,-284 494.3589,-296 494.3589,-296 494.3589,-302 488.3589,-308 482.3589,-308"/>
<text text-anchor="middle" x="458.0196" y="-286.7" font-family="Helvetica,sans-Serif" font-size="11.00" fill="#333333">Regressão</text>
</g>
<!-- SEMI&#45;&gt;SS_R -->
<g id="edge28" class="edge">
<title>SEMI&#45;&gt;SS_R</title>
<path fill="none" stroke="#888888" stroke-width="1.1" d="M305.7412,-339.9558C340.1789,-328.6583 383.8821,-314.3212 415.6283,-303.9067"/>
<polygon fill="#888888" stroke="#888888" stroke-width="1.1" points="416.3654,-305.8751 421.4119,-302.0094 415.0562,-301.8843 416.3654,-305.8751"/>
</g>
<!-- MF -->
<g id="node32" class="node">
<title>MF</title>
<path fill="#b9cdf3" stroke="#666666" d="M518.3536,-206C518.3536,-206 397.6855,-206 397.6855,-206 391.6855,-206 385.6855,-200 385.6855,-194 385.6855,-194 385.6855,-182 385.6855,-182 385.6855,-176 391.6855,-170 397.6855,-170 397.6855,-170 518.3536,-170 518.3536,-170 524.3536,-170 530.3536,-176 530.3536,-182 530.3536,-182 530.3536,-194 530.3536,-194 530.3536,-200 524.3536,-206 518.3536,-206"/>
<text text-anchor="middle" x="458.0196" y="-184.7" font-family="Helvetica,sans-Serif" font-size="11.00" fill="#333333">Sem Modelo (Model&#45;Free)</text>
</g>
<!-- REIN&#45;&gt;MF -->
<g id="edge31" class="edge">
<title>REIN&#45;&gt;MF</title>
<path fill="none" stroke="#888888" stroke-width="1.1" d="M321.7823,-188C340.3138,-188 360.3933,-188 379.297,-188"/>
<polygon fill="#888888" stroke="#888888" stroke-width="1.1" points="379.6589,-190.1001 385.6588,-188 379.6588,-185.9001 379.6589,-190.1001"/>
</g>
<!-- MB -->
<g id="node33" class="node">
<title>MB</title>
<path fill="#b9cdf3" stroke="#666666" d="M542.0537,-104C542.0537,-104 373.9854,-104 373.9854,-104 367.9854,-104 361.9854,-98 361.9854,-92 361.9854,-92 361.9854,-80 361.9854,-80 361.9854,-74 367.9854,-68 373.9854,-68 373.9854,-68 542.0537,-68 542.0537,-68 548.0537,-68 554.0537,-74 554.0537,-80 554.0537,-80 554.0537,-92 554.0537,-92 554.0537,-98 548.0537,-104 542.0537,-104"/>
<text text-anchor="middle" x="458.0196" y="-82.7" font-family="Helvetica,sans-Serif" font-size="11.00" fill="#333333">Baseado em Modelo (Model&#45;Based)</text>
</g>
<!-- REIN&#45;&gt;MB -->
<g id="edge32" class="edge">
<title>REIN&#45;&gt;MB</title>
<path fill="none" stroke="#888888" stroke-width="1.1" d="M287.3183,-169.9992C323.2097,-152.3377 377.9046,-125.4232 415.6635,-106.8427"/>
<polygon fill="#888888" stroke="#888888" stroke-width="1.1" points="416.651,-108.6973 421.1073,-104.1639 414.7966,-104.9289 416.651,-108.6973"/>
</g>
<!-- NB -->
<g id="node8" class="node">
<title>NB</title>
<path fill="#cfe9cf" stroke="#666666" d="M754.4214,-1532C754.4214,-1532 693.5086,-1532 693.5086,-1532 687.5086,-1532 681.5086,-1526 681.5086,-1520 681.5086,-1520 681.5086,-1508 681.5086,-1508 681.5086,-1502 687.5086,-1496 693.5086,-1496 693.5086,-1496 754.4214,-1496 754.4214,-1496 760.4214,-1496 766.4214,-1502 766.4214,-1508 766.4214,-1508 766.4214,-1520 766.4214,-1520 766.4214,-1526 760.4214,-1532 754.4214,-1532"/>
<text text-anchor="middle" x="723.965" y="-1510.7" font-family="Helvetica,sans-Serif" font-size="11.00" fill="#333333">Naïve Bayes</text>
</g>
<!-- CLC&#45;&gt;NB -->
<g id="edge7" class="edge">
<title>CLC&#45;&gt;NB</title>
<path fill="none" stroke="#888888" stroke-width="1.1" d="M467.2679,-1328.0564C486.1367,-1363.0274 532.5388,-1440.0619 594.0366,-1480 618.3857,-1495.8129 649.7869,-1504.2869 675.6193,-1508.8202"/>
<polygon fill="#888888" stroke="#888888" stroke-width="1.1" points="675.4548,-1510.9216 681.7183,-1509.8362 676.145,-1506.7787 675.4548,-1510.9216"/>
</g>
<!-- LR -->
<g id="node9" class="node">
<title>LR</title>
<path fill="#cfe9cf" stroke="#666666" d="M774.1424,-1464C774.1424,-1464 673.7876,-1464 673.7876,-1464 667.7876,-1464 661.7876,-1458 661.7876,-1452 661.7876,-1452 661.7876,-1440 661.7876,-1440 661.7876,-1434 667.7876,-1428 673.7876,-1428 673.7876,-1428 774.1424,-1428 774.1424,-1428 780.1424,-1428 786.1424,-1434 786.1424,-1440 786.1424,-1440 786.1424,-1452 786.1424,-1452 786.1424,-1458 780.1424,-1464 774.1424,-1464"/>
<text text-anchor="middle" x="723.965" y="-1442.7" font-family="Helvetica,sans-Serif" font-size="11.00" fill="#333333">Regressão Logística</text>
</g>
<!-- CLC&#45;&gt;LR -->
<g id="edge8" class="edge">
<title>CLC&#45;&gt;LR</title>
<path fill="none" stroke="#888888" stroke-width="1.1" d="M477.1398,-1328.2137C502.1009,-1351.0255 548.0501,-1389.8035 594.0366,-1412 613.244,-1421.271 635.3133,-1428.2575 655.7472,-1433.4085"/>
<polygon fill="#888888" stroke="#888888" stroke-width="1.1" points="655.4186,-1435.4901 661.7462,-1434.8806 656.4196,-1431.4111 655.4186,-1435.4901"/>
</g>
<!-- KNN -->
<g id="node10" class="node">
<title>KNN</title>
<path fill="#cfe9cf" stroke="#666666" d="M802.4474,-1396C802.4474,-1396 645.4826,-1396 645.4826,-1396 639.4826,-1396 633.4826,-1390 633.4826,-1384 633.4826,-1384 633.4826,-1372 633.4826,-1372 633.4826,-1366 639.4826,-1360 645.4826,-1360 645.4826,-1360 802.4474,-1360 802.4474,-1360 808.4474,-1360 814.4474,-1366 814.4474,-1372 814.4474,-1372 814.4474,-1384 814.4474,-1384 814.4474,-1390 808.4474,-1396 802.4474,-1396"/>
<text text-anchor="middle" x="723.965" y="-1374.7" font-family="Helvetica,sans-Serif" font-size="11.00" fill="#333333">K&#45;Vizinhos Mais Próximos (KNN)</text>
</g>
<!-- CLC&#45;&gt;KNN -->
<g id="edge9" class="edge">
<title>CLC&#45;&gt;KNN</title>
<path fill="none" stroke="#888888" stroke-width="1.1" d="M502.5328,-1321.3817C542.0249,-1331.4795 600.5684,-1346.4485 647.5417,-1358.4592"/>
<polygon fill="#888888" stroke="#888888" stroke-width="1.1" points="647.1697,-1360.5316 653.503,-1359.9835 648.2102,-1356.4625 647.1697,-1360.5316"/>
</g>
<!-- RF -->
<g id="node11" class="node">
<title>RF</title>
<path fill="#cfe9cf" stroke="#666666" d="M764.8043,-1328C764.8043,-1328 683.1257,-1328 683.1257,-1328 677.1257,-1328 671.1257,-1322 671.1257,-1316 671.1257,-1316 671.1257,-1304 671.1257,-1304 671.1257,-1298 677.1257,-1292 683.1257,-1292 683.1257,-1292 764.8043,-1292 764.8043,-1292 770.8043,-1292 776.8043,-1298 776.8043,-1304 776.8043,-1304 776.8043,-1316 776.8043,-1316 776.8043,-1322 770.8043,-1328 764.8043,-1328"/>
<text text-anchor="middle" x="723.965" y="-1306.7" font-family="Helvetica,sans-Serif" font-size="11.00" fill="#333333">Floresta Aleatória</text>
</g>
<!-- CLC&#45;&gt;RF -->
<g id="edge10" class="edge">
<title>CLC&#45;&gt;RF</title>
<path fill="none" stroke="#888888" stroke-width="1.1" d="M502.5328,-1310C547.0589,-1310 615.8029,-1310 664.8772,-1310"/>
<polygon fill="#888888" stroke="#888888" stroke-width="1.1" points="665.0625,-1312.1001 671.0625,-1310 665.0625,-1307.9001 665.0625,-1312.1001"/>
</g>
<!-- SVM -->
<g id="node12" class="node">
<title>SVM</title>
<path fill="#cfe9cf" stroke="#666666" d="M815.1667,-1260C815.1667,-1260 632.7633,-1260 632.7633,-1260 626.7633,-1260 620.7633,-1254 620.7633,-1248 620.7633,-1248 620.7633,-1236 620.7633,-1236 620.7633,-1230 626.7633,-1224 632.7633,-1224 632.7633,-1224 815.1667,-1224 815.1667,-1224 821.1667,-1224 827.1667,-1230 827.1667,-1236 827.1667,-1236 827.1667,-1248 827.1667,-1248 827.1667,-1254 821.1667,-1260 815.1667,-1260"/>
<text text-anchor="middle" x="723.965" y="-1238.7" font-family="Helvetica,sans-Serif" font-size="11.00" fill="#333333">Máquina de Vetores de Suporte (SVM)</text>
</g>
<!-- CLC&#45;&gt;SVM -->
<g id="edge11" class="edge">
<title>CLC&#45;&gt;SVM</title>
<path fill="none" stroke="#888888" stroke-width="1.1" d="M502.5328,-1298.6183C542.0249,-1288.5205 600.5684,-1273.5515 647.5417,-1261.5408"/>
<polygon fill="#888888" stroke="#888888" stroke-width="1.1" points="648.2102,-1263.5375 653.503,-1260.0165 647.1697,-1259.4684 648.2102,-1263.5375"/>
</g>
<!-- DT -->
<g id="node13" class="node">
<title>DT</title>
<path fill="#cfe9cf" stroke="#666666" d="M766.4705,-1192C766.4705,-1192 681.4595,-1192 681.4595,-1192 675.4595,-1192 669.4595,-1186 669.4595,-1180 669.4595,-1180 669.4595,-1168 669.4595,-1168 669.4595,-1162 675.4595,-1156 681.4595,-1156 681.4595,-1156 766.4705,-1156 766.4705,-1156 772.4705,-1156 778.4705,-1162 778.4705,-1168 778.4705,-1168 778.4705,-1180 778.4705,-1180 778.4705,-1186 772.4705,-1192 766.4705,-1192"/>
<text text-anchor="middle" x="723.965" y="-1170.7" font-family="Helvetica,sans-Serif" font-size="11.00" fill="#333333">Árvore de Decisão</text>
</g>
<!-- CLC&#45;&gt;DT -->
<g id="edge12" class="edge">
<title>CLC&#45;&gt;DT</title>
<path fill="none" stroke="#888888" stroke-width="1.1" d="M477.1398,-1291.7863C502.1009,-1268.9745 548.0501,-1230.1965 594.0366,-1208 615.6256,-1197.5795 640.8302,-1190.0451 663.2642,-1184.7593"/>
<polygon fill="#888888" stroke="#888888" stroke-width="1.1" points="663.829,-1186.7843 669.2074,-1183.3957 662.8897,-1182.6907 663.829,-1186.7843"/>
</g>
<!-- SLR -->
<g id="node14" class="node">
<title>SLR</title>
<path fill="#cfe9cf" stroke="#666666" d="M786.0903,-1124C786.0903,-1124 661.8397,-1124 661.8397,-1124 655.8397,-1124 649.8397,-1118 649.8397,-1112 649.8397,-1112 649.8397,-1100 649.8397,-1100 649.8397,-1094 655.8397,-1088 661.8397,-1088 661.8397,-1088 786.0903,-1088 786.0903,-1088 792.0903,-1088 798.0903,-1094 798.0903,-1100 798.0903,-1100 798.0903,-1112 798.0903,-1112 798.0903,-1118 792.0903,-1124 786.0903,-1124"/>
<text text-anchor="middle" x="723.965" y="-1102.7" font-family="Helvetica,sans-Serif" font-size="11.00" fill="#333333">Regressão Linear Simples</text>
</g>
<!-- RGR&#45;&gt;SLR -->
<g id="edge13" class="edge">
<title>RGR&#45;&gt;SLR</title>
<path fill="none" stroke="#888888" stroke-width="1.1" d="M494.4405,-1047.3125C533.6052,-1057.3266 597.0146,-1073.5399 647.2716,-1086.3901"/>
<polygon fill="#888888" stroke="#888888" stroke-width="1.1" points="646.9995,-1088.4881 653.3327,-1087.9399 648.04,-1084.419 646.9995,-1088.4881"/>
</g>
<!-- MLR -->
<g id="node15" class="node">
<title>MLR</title>
<path fill="#cfe9cf" stroke="#666666" d="M779.6391,-1056C779.6391,-1056 668.2909,-1056 668.2909,-1056 662.2909,-1056 656.2909,-1050 656.2909,-1044 656.2909,-1044 656.2909,-1032 656.2909,-1032 656.2909,-1026 662.2909,-1020 668.2909,-1020 668.2909,-1020 779.6391,-1020 779.6391,-1020 785.6391,-1020 791.6391,-1026 791.6391,-1032 791.6391,-1032 791.6391,-1044 791.6391,-1044 791.6391,-1050 785.6391,-1056 779.6391,-1056"/>
<text text-anchor="middle" x="723.965" y="-1034.7" font-family="Helvetica,sans-Serif" font-size="11.00" fill="#333333">Regressão Multivariada</text>
</g>
<!-- RGR&#45;&gt;MLR -->
<g id="edge14" class="edge">
<title>RGR&#45;&gt;MLR</title>
<path fill="none" stroke="#888888" stroke-width="1.1" d="M494.4405,-1038C534.357,-1038 599.4581,-1038 650.1511,-1038"/>
<polygon fill="#888888" stroke="#888888" stroke-width="1.1" points="650.2592,-1040.1001 656.2591,-1038 650.2591,-1035.9001 650.2592,-1040.1001"/>
</g>
<!-- LASSO -->
<g id="node16" class="node">
<title>LASSO</title>
<path fill="#cfe9cf" stroke="#666666" d="M764.7061,-988C764.7061,-988 683.2239,-988 683.2239,-988 677.2239,-988 671.2239,-982 671.2239,-976 671.2239,-976 671.2239,-964 671.2239,-964 671.2239,-958 677.2239,-952 683.2239,-952 683.2239,-952 764.7061,-952 764.7061,-952 770.7061,-952 776.7061,-958 776.7061,-964 776.7061,-964 776.7061,-976 776.7061,-976 776.7061,-982 770.7061,-988 764.7061,-988"/>
<text text-anchor="middle" x="723.965" y="-966.7" font-family="Helvetica,sans-Serif" font-size="11.00" fill="#333333">Regressão Lasso</text>
</g>
<!-- RGR&#45;&gt;LASSO -->
<g id="edge15" class="edge">
<title>RGR&#45;&gt;LASSO</title>
<path fill="none" stroke="#888888" stroke-width="1.1" d="M494.4405,-1028.6875C538.4105,-1017.4447 612.9398,-998.3882 665.1075,-985.0494"/>
<polygon fill="#888888" stroke="#888888" stroke-width="1.1" points="665.7436,-987.0544 671.0364,-983.5334 664.7031,-982.9853 665.7436,-987.0544"/>
</g>
<!-- KMEANS -->
<g id="node20" class="node">
<title>KMEANS</title>
<path fill="#ffd778" stroke="#666666" d="M770.4433,-920C770.4433,-920 677.4867,-920 677.4867,-920 671.4867,-920 665.4867,-914 665.4867,-908 665.4867,-908 665.4867,-896 665.4867,-896 665.4867,-890 671.4867,-884 677.4867,-884 677.4867,-884 770.4433,-884 770.4433,-884 776.4433,-884 782.4433,-890 782.4433,-896 782.4433,-896 782.4433,-908 782.4433,-908 782.4433,-914 776.4433,-920 770.4433,-920"/>
<text text-anchor="middle" x="723.965" y="-898.7" font-family="Helvetica,sans-Serif" font-size="11.00" fill="#333333">K&#45;Means (K&#45;médias)</text>
</g>
<!-- CLU&#45;&gt;KMEANS -->
<g id="edge19" class="edge">
<title>CLU&#45;&gt;KMEANS</title>
<path fill="none" stroke="#888888" stroke-width="1.1" d="M477.1398,-784.2137C502.1009,-807.0255 548.0501,-845.8035 594.0366,-868 614.4781,-877.8666 638.161,-885.1458 659.6643,-890.3787"/>
<polygon fill="#888888" stroke="#888888" stroke-width="1.1" points="659.3445,-892.461 665.667,-891.8008 660.3128,-888.3741 659.3445,-892.461"/>
</g>
<!-- DBSCAN -->
<g id="node21" class="node">
<title>DBSCAN</title>
<path fill="#ffd778" stroke="#666666" d="M742.7956,-852C742.7956,-852 705.1344,-852 705.1344,-852 699.1344,-852 693.1344,-846 693.1344,-840 693.1344,-840 693.1344,-828 693.1344,-828 693.1344,-822 699.1344,-816 705.1344,-816 705.1344,-816 742.7956,-816 742.7956,-816 748.7956,-816 754.7956,-822 754.7956,-828 754.7956,-828 754.7956,-840 754.7956,-840 754.7956,-846 748.7956,-852 742.7956,-852"/>
<text text-anchor="middle" x="723.965" y="-830.7" font-family="Helvetica,sans-Serif" font-size="11.00" fill="#333333">DBSCAN</text>
</g>
<!-- CLU&#45;&gt;DBSCAN -->
<g id="edge20" class="edge">
<title>CLU&#45;&gt;DBSCAN</title>
<path fill="none" stroke="#888888" stroke-width="1.1" d="M528.5898,-784.0442C579.4839,-797.0574 646.1509,-814.1036 686.9765,-824.5424"/>
<polygon fill="#888888" stroke="#888888" stroke-width="1.1" points="686.4743,-826.5814 692.8075,-826.0333 687.5148,-822.5123 686.4743,-826.5814"/>
</g>
<!-- PCA -->
<g id="node22" class="node">
<title>PCA</title>
<path fill="#ffd778" stroke="#666666" d="M823.7595,-784C823.7595,-784 624.1705,-784 624.1705,-784 618.1705,-784 612.1705,-778 612.1705,-772 612.1705,-772 612.1705,-760 612.1705,-760 612.1705,-754 618.1705,-748 624.1705,-748 624.1705,-748 823.7595,-748 823.7595,-748 829.7595,-748 835.7595,-754 835.7595,-760 835.7595,-760 835.7595,-772 835.7595,-772 835.7595,-778 829.7595,-784 823.7595,-784"/>
<text text-anchor="middle" x="723.965" y="-762.7" font-family="Helvetica,sans-Serif" font-size="11.00" fill="#333333">Análise de Componentes Principais (PCA)</text>
</g>
<!-- CLU&#45;&gt;PCA -->
<g id="edge21" class="edge">
<title>CLU&#45;&gt;PCA</title>
<path fill="none" stroke="#888888" stroke-width="1.1" d="M528.9387,-766C552.5857,-766 579.6077,-766 605.8483,-766"/>
<polygon fill="#888888" stroke="#888888" stroke-width="1.1" points="606.1421,-768.1001 612.1421,-766 606.142,-763.9001 606.1421,-768.1001"/>
</g>
<!-- ICA -->
<g id="node23" class="node">
<title>ICA</title>
<path fill="#ffd778" stroke="#666666" d="M834.0783,-716C834.0783,-716 613.8517,-716 613.8517,-716 607.8517,-716 601.8517,-710 601.8517,-704 601.8517,-704 601.8517,-692 601.8517,-692 601.8517,-686 607.8517,-680 613.8517,-680 613.8517,-680 834.0783,-680 834.0783,-680 840.0783,-680 846.0783,-686 846.0783,-692 846.0783,-692 846.0783,-704 846.0783,-704 846.0783,-710 840.0783,-716 834.0783,-716"/>
<text text-anchor="middle" x="723.965" y="-694.7" font-family="Helvetica,sans-Serif" font-size="11.00" fill="#333333">Análise de Componentes Independentes (ICA)</text>
</g>
<!-- CLU&#45;&gt;ICA -->
<g id="edge22" class="edge">
<title>CLU&#45;&gt;ICA</title>
<path fill="none" stroke="#888888" stroke-width="1.1" d="M528.5898,-747.9558C565.2529,-738.5814 610.1011,-727.114 647.5777,-717.5316"/>
<polygon fill="#888888" stroke="#888888" stroke-width="1.1" points="648.234,-719.5314 653.5268,-716.0105 647.1935,-715.4623 648.234,-719.5314"/>
</g>
<!-- FPG -->
<g id="node24" class="node">
<title>FPG</title>
<path fill="#ffd778" stroke="#666666" d="M841.8218,-648C841.8218,-648 606.1082,-648 606.1082,-648 600.1082,-648 594.1082,-642 594.1082,-636 594.1082,-636 594.1082,-624 594.1082,-624 594.1082,-618 600.1082,-612 606.1082,-612 606.1082,-612 841.8218,-612 841.8218,-612 847.8218,-612 853.8218,-618 853.8218,-624 853.8218,-624 853.8218,-636 853.8218,-636 853.8218,-642 847.8218,-648 841.8218,-648"/>
<text text-anchor="middle" x="723.965" y="-626.7" font-family="Helvetica,sans-Serif" font-size="11.00" fill="#333333">Crescimento de Padrões Frequentes (FP&#45;Growth)</text>
</g>
<!-- ASC&#45;&gt;FPG -->
<g id="edge23" class="edge">
<title>ASC&#45;&gt;FPG</title>
<path fill="none" stroke="#888888" stroke-width="1.1" d="M498.1222,-572.2539C537.5831,-582.3437 598.8384,-598.0062 647.6038,-610.4751"/>
<polygon fill="#888888" stroke="#888888" stroke-width="1.1" points="647.1534,-612.5274 653.4866,-611.9793 648.1939,-608.4583 647.1534,-612.5274"/>
</g>
<!-- APR -->
<g id="node25" class="node">
<title>APR</title>
<path fill="#ffd778" stroke="#666666" d="M760.7367,-580C760.7367,-580 687.1933,-580 687.1933,-580 681.1933,-580 675.1933,-574 675.1933,-568 675.1933,-568 675.1933,-556 675.1933,-556 675.1933,-550 681.1933,-544 687.1933,-544 687.1933,-544 760.7367,-544 760.7367,-544 766.7367,-544 772.7367,-550 772.7367,-556 772.7367,-556 772.7367,-568 772.7367,-568 772.7367,-574 766.7367,-580 760.7367,-580"/>
<text text-anchor="middle" x="723.965" y="-558.7" font-family="Helvetica,sans-Serif" font-size="11.00" fill="#333333">Algoritmo Apriori</text>
</g>
<!-- ASC&#45;&gt;APR -->
<g id="edge24" class="edge">
<title>ASC&#45;&gt;APR</title>
<path fill="none" stroke="#888888" stroke-width="1.1" d="M498.1222,-562C543.5789,-562 617.9563,-562 668.8473,-562"/>
<polygon fill="#888888" stroke="#888888" stroke-width="1.1" points="668.9336,-564.1001 674.9335,-562 668.9335,-559.9001 668.9336,-564.1001"/>
</g>
<!-- ZS -->
<g id="node26" class="node">
<title>ZS</title>
<path fill="#ffd778" stroke="#666666" d="M738.965,-512C738.965,-512 708.965,-512 708.965,-512 702.965,-512 696.965,-506 696.965,-500 696.965,-500 696.965,-488 696.965,-488 696.965,-482 702.965,-476 708.965,-476 708.965,-476 738.965,-476 738.965,-476 744.965,-476 750.965,-482 750.965,-488 750.965,-488 750.965,-500 750.965,-500 750.965,-506 744.965,-512 738.965,-512"/>
<text text-anchor="middle" x="723.965" y="-490.7" font-family="Helvetica,sans-Serif" font-size="11.00" fill="#333333">Z&#45;score</text>
</g>
<!-- ANO&#45;&gt;ZS -->
<g id="edge25" class="edge">
<title>ANO&#45;&gt;ZS</title>
<path fill="none" stroke="#888888" stroke-width="1.1" d="M528.2415,-494C580.6826,-494 650.0188,-494 690.5303,-494"/>
<polygon fill="#888888" stroke="#888888" stroke-width="1.1" points="690.7777,-496.1001 696.7777,-494 690.7776,-491.9001 690.7777,-496.1001"/>
</g>
<!-- IFOR -->
<g id="node27" class="node">
<title>IFOR</title>
<path fill="#ffd778" stroke="#666666" d="M775.8241,-444C775.8241,-444 672.1059,-444 672.1059,-444 666.1059,-444 660.1059,-438 660.1059,-432 660.1059,-432 660.1059,-420 660.1059,-420 660.1059,-414 666.1059,-408 672.1059,-408 672.1059,-408 775.8241,-408 775.8241,-408 781.8241,-408 787.8241,-414 787.8241,-420 787.8241,-420 787.8241,-432 787.8241,-432 787.8241,-438 781.8241,-444 775.8241,-444"/>
<text text-anchor="middle" x="723.965" y="-422.7" font-family="Helvetica,sans-Serif" font-size="11.00" fill="#333333">Floresta de Isolamento</text>
</g>
<!-- ANO&#45;&gt;IFOR -->
<g id="edge26" class="edge">
<title>ANO&#45;&gt;IFOR</title>
<path fill="none" stroke="#888888" stroke-width="1.1" d="M528.2415,-476.0449C566.9515,-466.147 614.8674,-453.8953 653.6,-443.9917"/>
<polygon fill="#888888" stroke="#888888" stroke-width="1.1" points="654.442,-445.9441 659.7347,-442.4231 653.4015,-441.875 654.442,-445.9441"/>
</g>
<!-- ST -->
<g id="node30" class="node">
<title>ST</title>
<path fill="#cfcfd3" stroke="#666666" d="M800.195,-376C800.195,-376 647.735,-376 647.735,-376 641.735,-376 635.735,-370 635.735,-364 635.735,-364 635.735,-352 635.735,-352 635.735,-346 641.735,-340 647.735,-340 647.735,-340 800.195,-340 800.195,-340 806.195,-340 812.195,-346 812.195,-352 812.195,-352 812.195,-364 812.195,-364 812.195,-370 806.195,-376 800.195,-376"/>
<text text-anchor="middle" x="723.965" y="-354.7" font-family="Helvetica,sans-Serif" font-size="11.00" fill="#333333">Auto&#45;Treinamento (Self&#45;Training)</text>
</g>
<!-- SS_C&#45;&gt;ST -->
<g id="edge29" class="edge">
<title>SS_C&#45;&gt;ST</title>
<path fill="none" stroke="#888888" stroke-width="1.1" d="M502.5328,-358C537.133,-358 586.3571,-358 629.6115,-358"/>
<polygon fill="#888888" stroke="#888888" stroke-width="1.1" points="629.6731,-360.1001 635.6731,-358 629.6731,-355.9001 629.6731,-360.1001"/>
</g>
<!-- COT -->
<g id="node31" class="node">
<title>COT</title>
<path fill="#cfcfd3" stroke="#666666" d="M793.7354,-308C793.7354,-308 654.1946,-308 654.1946,-308 648.1946,-308 642.1946,-302 642.1946,-296 642.1946,-296 642.1946,-284 642.1946,-284 642.1946,-278 648.1946,-272 654.1946,-272 654.1946,-272 793.7354,-272 793.7354,-272 799.7354,-272 805.7354,-278 805.7354,-284 805.7354,-284 805.7354,-296 805.7354,-296 805.7354,-302 799.7354,-308 793.7354,-308"/>
<text text-anchor="middle" x="723.965" y="-286.7" font-family="Helvetica,sans-Serif" font-size="11.00" fill="#333333">Co&#45;Treinamento (Co&#45;Training)</text>
</g>
<!-- SS_R&#45;&gt;COT -->
<g id="edge30" class="edge">
<title>SS_R&#45;&gt;COT</title>
<path fill="none" stroke="#888888" stroke-width="1.1" d="M494.4405,-290C530.7289,-290 587.8318,-290 636.0009,-290"/>
<polygon fill="#888888" stroke="#888888" stroke-width="1.1" points="636.1302,-292.1001 642.1301,-290 636.1301,-287.9001 636.1302,-292.1001"/>
</g>
<!-- PO -->
<g id="node34" class="node">
<title>PO</title>
<path fill="#b9cdf3" stroke="#666666" d="M780.5782,-240C780.5782,-240 667.3518,-240 667.3518,-240 661.3518,-240 655.3518,-234 655.3518,-228 655.3518,-228 655.3518,-216 655.3518,-216 655.3518,-210 661.3518,-204 667.3518,-204 667.3518,-204 780.5782,-204 780.5782,-204 786.5782,-204 792.5782,-210 792.5782,-216 792.5782,-216 792.5782,-228 792.5782,-228 792.5782,-234 786.5782,-240 780.5782,-240"/>
<text text-anchor="middle" x="723.965" y="-218.7" font-family="Helvetica,sans-Serif" font-size="11.00" fill="#333333">Otimização de Política</text>
</g>
<!-- MF&#45;&gt;PO -->
<g id="edge33" class="edge">
<title>MF&#45;&gt;PO</title>
<path fill="none" stroke="#888888" stroke-width="1.1" d="M530.339,-197.2457C567.1253,-201.9487 611.7935,-207.6593 648.9533,-212.4101"/>
<polygon fill="#888888" stroke="#888888" stroke-width="1.1" points="649.1063,-214.5466 655.3242,-213.2246 649.6389,-210.3806 649.1063,-214.5466"/>
</g>
<!-- QL -->
<g id="node35" class="node">
<title>QL</title>
<path fill="#b9cdf3" stroke="#666666" d="M747.476,-172C747.476,-172 700.454,-172 700.454,-172 694.454,-172 688.454,-166 688.454,-160 688.454,-160 688.454,-148 688.454,-148 688.454,-142 694.454,-136 700.454,-136 700.454,-136 747.476,-136 747.476,-136 753.476,-136 759.476,-142 759.476,-148 759.476,-148 759.476,-160 759.476,-160 759.476,-166 753.476,-172 747.476,-172"/>
<text text-anchor="middle" x="723.965" y="-150.7" font-family="Helvetica,sans-Serif" font-size="11.00" fill="#333333">Q&#45;Learning</text>
</g>
<!-- MF&#45;&gt;QL -->
<g id="edge34" class="edge">
<title>MF&#45;&gt;QL</title>
<path fill="none" stroke="#888888" stroke-width="1.1" d="M530.339,-178.7543C579.0574,-172.5258 641.6002,-164.53 682.2181,-159.3372"/>
<polygon fill="#888888" stroke="#888888" stroke-width="1.1" points="682.61,-161.4042 688.2952,-158.5602 682.0773,-157.2382 682.61,-161.4042"/>
</g>
<!-- LTM -->
<g id="node36" class="node">
<title>LTM</title>
<path fill="#b9cdf3" stroke="#666666" d="M766.4913,-104C766.4913,-104 681.4387,-104 681.4387,-104 675.4387,-104 669.4387,-98 669.4387,-92 669.4387,-92 669.4387,-80 669.4387,-80 669.4387,-74 675.4387,-68 681.4387,-68 681.4387,-68 766.4913,-68 766.4913,-68 772.4913,-68 778.4913,-74 778.4913,-80 778.4913,-80 778.4913,-92 778.4913,-92 778.4913,-98 772.4913,-104 766.4913,-104"/>
<text text-anchor="middle" x="723.965" y="-82.7" font-family="Helvetica,sans-Serif" font-size="11.00" fill="#333333">Aprender o Modelo</text>
</g>
<!-- MB&#45;&gt;LTM -->
<g id="edge35" class="edge">
<title>MB&#45;&gt;LTM</title>
<path fill="none" stroke="#888888" stroke-width="1.1" d="M554.408,-86C590.6415,-86 630.8049,-86 662.9441,-86"/>
<polygon fill="#888888" stroke="#888888" stroke-width="1.1" points="663.2614,-88.1001 669.2614,-86 663.2614,-83.9001 663.2614,-88.1001"/>
</g>
<!-- GTM -->
<g id="node37" class="node">
<title>GTM</title>
<path fill="#b9cdf3" stroke="#666666" d="M757.0427,-36C757.0427,-36 690.8873,-36 690.8873,-36 684.8873,-36 678.8873,-30 678.8873,-24 678.8873,-24 678.8873,-12 678.8873,-12 678.8873,-6 684.8873,0 690.8873,0 690.8873,0 757.0427,0 757.0427,0 763.0427,0 769.0427,-6 769.0427,-12 769.0427,-12 769.0427,-24 769.0427,-24 769.0427,-30 763.0427,-36 757.0427,-36"/>
<text text-anchor="middle" x="723.965" y="-14.7" font-family="Helvetica,sans-Serif" font-size="11.00" fill="#333333">Dado o Modelo</text>
</g>
<!-- MB&#45;&gt;GTM -->
<g id="edge36" class="edge">
<title>MB&#45;&gt;GTM</title>
<path fill="none" stroke="#888888" stroke-width="1.1" d="M528.5898,-67.9558C573.9105,-56.3677 631.7386,-41.5815 672.689,-31.1108"/>
<polygon fill="#888888" stroke="#888888" stroke-width="1.1" points="673.3122,-33.1191 678.6049,-29.5982 672.2717,-29.05 673.3122,-33.1191"/>
</g>
</g>
</svg>

