<?xml version="1.0" encoding="UTF-8" standalone="no"?>
<!DOCTYPE svg PUBLIC "-//W3C//DTD SVG 1.1//EN"
 "http://www.w3.org/Graphics/SVG/1.1/DTD/svg11.dtd">
<!-- Generated by graphviz version 2.40.1 (20161225.0304)
 -->
<!-- Title: TD Pages: 1 -->
<svg width="1175pt" height="613pt"
 viewBox="0.00 0.00 1174.50 612.90" xmlns="http://www.w3.org/2000/svg" xmlns:xlink="http://www.w3.org/1999/xlink">
<g id="graph0" class="graph" transform="scale(1 1) rotate(0) translate(4 608.9)">
<title>TD</title>
<g id="a_graph0"><a xlink:title="Click the boxes for further information">
<polygon fill="#ffffff" stroke="transparent" points="-4,4 -4,-608.9 1170.5,-608.9 1170.5,4 -4,4"/>
</a>
</g>
<!-- 3&#45;&gt;4 -->
<!-- 3&#45;&gt;5 -->
<!-- 4&#45;&gt;5 -->
<g id="edge3" class="edge">
<title>4&#45;&gt;5</title>
<path fill="none" stroke="#000000" d="M302.821,-495C311.202,-495 319.6641,-495 328.0915,-495"/>
<polygon fill="#000000" stroke="#000000" points="328.346,-498.5001 338.346,-495 328.3459,-491.5001 328.346,-498.5001"/>
</g>
<!-- 4&#45;&gt;6 -->
<g id="edge4" class="edge">
<title>4&#45;&gt;6</title>
<path fill="none" stroke="#000000" d="M176.5,-467.6807C176.5,-444.8006 176.5,-412.2362 176.5,-388.9191"/>
<polygon fill="#000000" stroke="#000000" points="180.0001,-388.6117 176.5,-378.6118 173.0001,-388.6118 180.0001,-388.6117"/>
</g>
<!-- 5&#45;&gt;7 -->
<!-- 6&#45;&gt;7 -->
<g id="edge5" class="edge">
<title>6&#45;&gt;7</title>
<path fill="none" stroke="#000000" d="M302.821,-360C311.202,-360 319.6641,-360 328.0915,-360"/>
<polygon fill="#000000" stroke="#000000" points="328.346,-363.5001 338.346,-360 328.3459,-356.5001 328.346,-363.5001"/>
</g>
<!-- 6&#45;&gt;8 -->
<g id="edge6" class="edge">
<title>6&#45;&gt;8</title>
<path fill="none" stroke="#000000" d="M176.5,-341.4582C176.5,-333.9583 176.5,-325.1245 176.5,-316.8217"/>
<polygon fill="#000000" stroke="#000000" points="180.0001,-316.7292 176.5,-306.7292 173.0001,-316.7292 180.0001,-316.7292"/>
</g>
<!-- 7&#45;&gt;9 -->
<!-- 8&#45;&gt;9 -->
<g id="edge7" class="edge">
<title>8&#45;&gt;9</title>
<path fill="none" stroke="#000000" d="M302.821,-288C311.202,-288 319.6641,-288 328.0915,-288"/>
<polygon fill="#000000" stroke="#000000" points="328.346,-291.5001 338.346,-288 328.3459,-284.5001 328.346,-291.5001"/>
</g>
<!-- 8&#45;&gt;10 -->
<g id="edge8" class="edge">
<title>8&#45;&gt;10</title>
<path fill="none" stroke="#000000" d="M176.5,-269.3519C176.5,-256.9612 176.5,-240.4547 176.5,-226.4391"/>
<polygon fill="#000000" stroke="#000000" points="180.0001,-226.3162 176.5,-216.3162 173.0001,-226.3163 180.0001,-226.3162"/>
</g>
<!-- 9&#45;&gt;11 -->
<!-- 10&#45;&gt;12 -->
<g id="edge10" class="edge">
<title>10&#45;&gt;12</title>
<path fill="none" stroke="#000000" d="M176.5,-179.4693C176.5,-159.5319 176.5,-127.0631 176.5,-100.1504"/>
<polygon fill="#000000" stroke="#000000" points="180.0001,-100.1456 176.5,-90.1456 173.0001,-100.1456 180.0001,-100.1456"/>
</g>
<!-- 10&#45;&gt;C -->
<g id="edge9" class="edge">
<title>10&#45;&gt;C</title>
<path fill="none" stroke="#000000" d="M302.821,-198C311.202,-198 319.6641,-198 328.0915,-198"/>
<polygon fill="#000000" stroke="#000000" points="328.346,-201.5001 338.346,-198 328.3459,-194.5001 328.346,-201.5001"/>
</g>
<!-- 13&#45;&gt;14 -->
<g id="edge15" class="edge">
<title>13&#45;&gt;14</title>
<path fill="none" stroke="#ffffff" d="M874.3156,-575.7028C856.4069,-563.8383 830.4332,-546.6307 807.0661,-531.1501"/>
</g>
<!-- 14&#45;&gt;15 -->
<g id="edge16" class="edge">
<title>14&#45;&gt;15</title>
<path fill="none" stroke="#000000" d="M752.5,-458.9434C752.5,-418.4595 752.5,-353.5917 752.5,-316.494"/>
<polygon fill="#000000" stroke="#000000" points="756.0001,-316.3698 752.5,-306.3699 749.0001,-316.3699 756.0001,-316.3698"/>
</g>
<!-- 15&#45;&gt;16 -->
<g id="edge17" class="edge">
<title>15&#45;&gt;16</title>
<path fill="none" stroke="#000000" d="M878.821,-288C887.202,-288 895.6641,-288 904.0915,-288"/>
<polygon fill="#000000" stroke="#000000" points="904.346,-291.5001 914.346,-288 904.3459,-284.5001 904.346,-291.5001"/>
</g>
<!-- 15&#45;&gt;17 -->
<g id="edge18" class="edge">
<title>15&#45;&gt;17</title>
<path fill="none" stroke="#000000" d="M752.5,-269.3519C752.5,-256.9612 752.5,-240.4547 752.5,-226.4391"/>
<polygon fill="#000000" stroke="#000000" points="756.0001,-226.3162 752.5,-216.3162 749.0001,-226.3163 756.0001,-226.3162"/>
</g>
<!-- 16&#45;&gt;18 -->
<!-- 17&#45;&gt;18 -->
<g id="edge19" class="edge">
<title>17&#45;&gt;18</title>
<path fill="none" stroke="#000000" d="M878.821,-198C887.202,-198 895.6641,-198 904.0915,-198"/>
<polygon fill="#000000" stroke="#000000" points="904.346,-201.5001 914.346,-198 904.3459,-194.5001 904.346,-201.5001"/>
</g>
<!-- 17&#45;&gt;B -->
<g id="edge20" class="edge">
<title>17&#45;&gt;B</title>
<path fill="none" stroke="#000000" d="M752.5,-179.4693C752.5,-142.4003 752.5,-62.0118 752.5,-54.5569"/>
</g>
<!-- B&#45;&gt;12 -->
<g id="edge21" class="edge">
<title>B&#45;&gt;12</title>
<path fill="none" stroke="#000000" d="M751.8494,-54C737.2012,-54 478.5171,-54 313.0507,-54"/>
<polygon fill="#000000" stroke="#000000" points="312.7833,-50.5001 302.7832,-54 312.7832,-57.5001 312.7833,-50.5001"/>
</g>
<!-- identification -->
<g id="node1" class="node">
<title>identification</title>
<g id="a_node1"><a xlink:title="Blue identification box">
<path fill="#bcd2ee" stroke="#bcd2ee" d="M19.3333,-540C19.3333,-540 9.6667,-540 9.6667,-540 4.8333,-540 0,-535.1667 0,-530.3333 0,-530.3333 0,-459.6667 0,-459.6667 0,-454.8333 4.8333,-450 9.6667,-450 9.6667,-450 19.3333,-450 19.3333,-450 24.1667,-450 29,-454.8333 29,-459.6667 29,-459.6667 29,-530.3333 29,-530.3333 29,-535.1667 24.1667,-540 19.3333,-540"/>
<text text-anchor="middle" x="14.5" y="-491.4" font-family="Helvetica,sans-Serif" font-size="12.00" fill="#000000"> </text>
</a>
</g>
</g>
<!-- screening -->
<g id="node2" class="node">
<title>screening</title>
<g id="a_node2"><a xlink:title="Blue screening box">
<path fill="#bcd2ee" stroke="#bcd2ee" d="M19.3333,-408C19.3333,-408 9.6667,-408 9.6667,-408 4.8333,-408 0,-403.1667 0,-398.3333 0,-398.3333 0,-165.6667 0,-165.6667 0,-160.8333 4.8333,-156 9.6667,-156 9.6667,-156 19.3333,-156 19.3333,-156 24.1667,-156 29,-160.8333 29,-165.6667 29,-165.6667 29,-398.3333 29,-398.3333 29,-403.1667 24.1667,-408 19.3333,-408"/>
<text text-anchor="middle" x="14.5" y="-278.4" font-family="Helvetica,sans-Serif" font-size="12.00" fill="#000000"> </text>
</a>
</g>
</g>
<!-- included -->
<g id="node3" class="node">
<title>included</title>
<g id="a_node3"><a xlink:title="Blue included box">
<path fill="#bcd2ee" stroke="#bcd2ee" d="M19.3333,-108C19.3333,-108 9.6667,-108 9.6667,-108 4.8333,-108 0,-103.1667 0,-98.3333 0,-98.3333 0,-9.6667 0,-9.6667 0,-4.8333 4.8333,0 9.6667,0 9.6667,0 19.3333,0 19.3333,0 24.1667,0 29,-4.8333 29,-9.6667 29,-9.6667 29,-98.3333 29,-98.3333 29,-103.1667 24.1667,-108 19.3333,-108"/>
<text text-anchor="middle" x="14.5" y="-50.4" font-family="Helvetica,sans-Serif" font-size="12.00" fill="#000000"> </text>
</a>
</g>
</g>
<!-- 3 -->
<g id="node4" class="node">
<title>3</title>
<g id="a_node4"><a xlink:title="Yellow title box; Identification of new studies via databases and registers">
<path fill="#ffc125" stroke="#ffc125" d="M580.8333,-604.9C580.8333,-604.9 60.1667,-604.9 60.1667,-604.9 55.3333,-604.9 50.5,-600.0667 50.5,-595.2333 50.5,-595.2333 50.5,-585.5667 50.5,-585.5667 50.5,-580.7333 55.3333,-575.9 60.1667,-575.9 60.1667,-575.9 580.8333,-575.9 580.8333,-575.9 585.6667,-575.9 590.5,-580.7333 590.5,-585.5667 590.5,-585.5667 590.5,-595.2333 590.5,-595.2333 590.5,-600.0667 585.6667,-604.9 580.8333,-604.9"/>
<text text-anchor="middle" x="320.5" y="-586.8" font-family="Helvetica,sans-Serif" font-size="12.00" fill="#000000">Identification of new studies via databases and registers</text>
</a>
</g>
</g>
<!-- 4 -->
<g id="node5" class="node">
<title>4</title>
<g id="a_node5"><a xlink:title="Records identified from: Databases and Registers">
<polygon fill="none" stroke="#000000" points="302.5,-522 50.5,-522 50.5,-468 302.5,-468 302.5,-522"/>
<text text-anchor="middle" x="176.5" y="-505.8" font-family="Helvetica,sans-Serif" font-size="12.00" fill="#000000">Records identified from:</text>
<text text-anchor="middle" x="176.5" y="-491.4" font-family="Helvetica,sans-Serif" font-size="12.00" fill="#000000">Databases (n = 0)</text>
<text text-anchor="middle" x="176.5" y="-477" font-family="Helvetica,sans-Serif" font-size="12.00" fill="#000000">Registers (n = 0)</text>
</a>
</g>
</g>
<!-- 5 -->
<g id="node6" class="node">
<title>5</title>
<g id="a_node6"><a xlink:title="Duplicate records">
<polygon fill="none" stroke="#000000" points="590.5,-535 338.5,-535 338.5,-455 590.5,-455 590.5,-535"/>
<text text-anchor="middle" x="464.5" y="-520.2" font-family="Helvetica,sans-Serif" font-size="12.00" fill="#000000">Records removed before screening:</text>
<text text-anchor="middle" x="464.5" y="-505.8" font-family="Helvetica,sans-Serif" font-size="12.00" fill="#000000">Duplicate records (n = 0)</text>
<text text-anchor="middle" x="464.5" y="-491.4" font-family="Helvetica,sans-Serif" font-size="12.00" fill="#000000">Records marked as ineligible by automation</text>
<text text-anchor="middle" x="464.5" y="-477" font-family="Helvetica,sans-Serif" font-size="12.00" fill="#000000">tools (n = 0)</text>
<text text-anchor="middle" x="464.5" y="-462.6" font-family="Helvetica,sans-Serif" font-size="12.00" fill="#000000">Records removed for other reasons (n = 0)</text>
</a>
</g>
</g>
<!-- 6 -->
<g id="node7" class="node">
<title>6</title>
<g id="a_node7"><a xlink:title="Records screened (databases and registers)">
<polygon fill="none" stroke="#000000" points="302.5,-378.3005 50.5,-378.3005 50.5,-341.6995 302.5,-341.6995 302.5,-378.3005"/>
<text text-anchor="middle" x="176.5" y="-363.6" font-family="Helvetica,sans-Serif" font-size="12.00" fill="#000000">Records screened</text>
<text text-anchor="middle" x="176.5" y="-349.2" font-family="Helvetica,sans-Serif" font-size="12.00" fill="#000000">(n = 0)</text>
</a>
</g>
</g>
<!-- 7 -->
<g id="node8" class="node">
<title>7</title>
<g id="a_node8"><a xlink:title="Records excluded (databases and registers)">
<polygon fill="none" stroke="#000000" points="590.5,-378.3005 338.5,-378.3005 338.5,-341.6995 590.5,-341.6995 590.5,-378.3005"/>
<text text-anchor="middle" x="464.5" y="-363.6" font-family="Helvetica,sans-Serif" font-size="12.00" fill="#000000">Records excluded</text>
<text text-anchor="middle" x="464.5" y="-349.2" font-family="Helvetica,sans-Serif" font-size="12.00" fill="#000000">(n = 0)</text>
</a>
</g>
</g>
<!-- 8 -->
<g id="node9" class="node">
<title>8</title>
<g id="a_node9"><a xlink:title="Reports sought for retrieval (databases and registers)">
<polygon fill="none" stroke="#000000" points="302.5,-306.3005 50.5,-306.3005 50.5,-269.6995 302.5,-269.6995 302.5,-306.3005"/>
<text text-anchor="middle" x="176.5" y="-291.6" font-family="Helvetica,sans-Serif" font-size="12.00" fill="#000000">Reports sought for retrieval</text>
<text text-anchor="middle" x="176.5" y="-277.2" font-family="Helvetica,sans-Serif" font-size="12.00" fill="#000000">(n = 0)</text>
</a>
</g>
</g>
<!-- 9 -->
<g id="node10" class="node">
<title>9</title>
<g id="a_node10"><a xlink:title="Reports not retrieved (databases and registers)">
<polygon fill="none" stroke="#000000" points="590.5,-306.3005 338.5,-306.3005 338.5,-269.6995 590.5,-269.6995 590.5,-306.3005"/>
<text text-anchor="middle" x="464.5" y="-291.6" font-family="Helvetica,sans-Serif" font-size="12.00" fill="#000000">Reports not retrieved</text>
<text text-anchor="middle" x="464.5" y="-277.2" font-family="Helvetica,sans-Serif" font-size="12.00" fill="#000000">(n = 0)</text>
</a>
</g>
</g>
<!-- 10 -->
<g id="node11" class="node">
<title>10</title>
<g id="a_node11"><a xlink:title="Reports assessed for eligibility (databases and registers)">
<polygon fill="none" stroke="#000000" points="302.5,-216.3005 50.5,-216.3005 50.5,-179.6995 302.5,-179.6995 302.5,-216.3005"/>
<text text-anchor="middle" x="176.5" y="-201.6" font-family="Helvetica,sans-Serif" font-size="12.00" fill="#000000">Reports assessed for eligibility</text>
<text text-anchor="middle" x="176.5" y="-187.2" font-family="Helvetica,sans-Serif" font-size="12.00" fill="#000000">(n = 0)</text>
</a>
</g>
</g>
<!-- 11 -->
<g id="node12" class="node">
<title>11</title>
<g id="a_node12"><a xlink:title="Reports excluded (databases and registers)">
<polygon fill="#ffffff" stroke="#000000" points="590.5,-230.6012 338.5,-230.6012 338.5,-165.3988 590.5,-165.3988 590.5,-230.6012"/>
<text text-anchor="middle" x="464.5" y="-216" font-family="Helvetica,sans-Serif" font-size="12.00" fill="#000000">Reports excluded:</text>
<text text-anchor="middle" x="464.5" y="-201.6" font-family="Helvetica,sans-Serif" font-size="12.00" fill="#000000">Reason1 (n = NA)</text>
<text text-anchor="middle" x="464.5" y="-187.2" font-family="Helvetica,sans-Serif" font-size="12.00" fill="#000000">Reason2 (n = NA)</text>
<text text-anchor="middle" x="464.5" y="-172.8" font-family="Helvetica,sans-Serif" font-size="12.00" fill="#000000">Reason3 (n = NA)</text>
</a>
</g>
</g>
<!-- 12 -->
<g id="node13" class="node">
<title>12</title>
<g id="a_node13"><a xlink:title="New studies included in review">
<polygon fill="none" stroke="#000000" points="302.5,-90 50.5,-90 50.5,-18 302.5,-18 302.5,-90"/>
<text text-anchor="middle" x="176.5" y="-72" font-family="Helvetica,sans-Serif" font-size="12.00" fill="#000000">New studies included in review</text>
<text text-anchor="middle" x="176.5" y="-57.6" font-family="Helvetica,sans-Serif" font-size="12.00" fill="#000000">(n = 0)</text>
<text text-anchor="middle" x="176.5" y="-43.2" font-family="Helvetica,sans-Serif" font-size="12.00" fill="#000000">Reports of new included studies</text>
<text text-anchor="middle" x="176.5" y="-28.8" font-family="Helvetica,sans-Serif" font-size="12.00" fill="#000000">(n = 0)</text>
</a>
</g>
</g>
<!-- 13 -->
<g id="node14" class="node">
<title>13</title>
<g id="a_node14"><a xlink:title="Grey title box; Identification of new studies via other methods">
<path fill="#dcdcdc" stroke="#dcdcdc" d="M1156.8333,-604.9C1156.8333,-604.9 636.1667,-604.9 636.1667,-604.9 631.3333,-604.9 626.5,-600.0667 626.5,-595.2333 626.5,-595.2333 626.5,-585.5667 626.5,-585.5667 626.5,-580.7333 631.3333,-575.9 636.1667,-575.9 636.1667,-575.9 1156.8333,-575.9 1156.8333,-575.9 1161.6667,-575.9 1166.5,-580.7333 1166.5,-585.5667 1166.5,-585.5667 1166.5,-595.2333 1166.5,-595.2333 1166.5,-600.0667 1161.6667,-604.9 1156.8333,-604.9"/>
<text text-anchor="middle" x="896.5" y="-586.8" font-family="Helvetica,sans-Serif" font-size="12.00" fill="#000000">Identification of new studies via other methods</text>
</a>
</g>
</g>
<!-- 14 -->
<g id="node15" class="node">
<title>14</title>
<g id="a_node15"><a xlink:title="Records identified from: Websites, Organisations and Citation Searching">
<polygon fill="#dcdcdc" stroke="#dcdcdc" points="878.5,-531 626.5,-531 626.5,-459 878.5,-459 878.5,-531"/>
<text text-anchor="middle" x="752.5" y="-513" font-family="Helvetica,sans-Serif" font-size="12.00" fill="#000000">Records identified from:</text>
<text text-anchor="middle" x="752.5" y="-498.6" font-family="Helvetica,sans-Serif" font-size="12.00" fill="#000000">Websites (n = 0)</text>
<text text-anchor="middle" x="752.5" y="-484.2" font-family="Helvetica,sans-Serif" font-size="12.00" fill="#000000">Organisations (n = 0)</text>
<text text-anchor="middle" x="752.5" y="-469.8" font-family="Helvetica,sans-Serif" font-size="12.00" fill="#000000">Citation searching (n = 0)</text>
</a>
</g>
</g>
<!-- 15 -->
<g id="node16" class="node">
<title>15</title>
<g id="a_node16"><a xlink:title="Reports sought for retrieval (other)">
<polygon fill="#dcdcdc" stroke="#dcdcdc" points="878.5,-306.3005 626.5,-306.3005 626.5,-269.6995 878.5,-269.6995 878.5,-306.3005"/>
<text text-anchor="middle" x="752.5" y="-291.6" font-family="Helvetica,sans-Serif" font-size="12.00" fill="#000000">Reports sought for retrieval</text>
<text text-anchor="middle" x="752.5" y="-277.2" font-family="Helvetica,sans-Serif" font-size="12.00" fill="#000000">(n = 0)</text>
</a>
</g>
</g>
<!-- 16 -->
<g id="node17" class="node">
<title>16</title>
<g id="a_node17"><a xlink:title="Reports not retrieved (other)">
<polygon fill="#dcdcdc" stroke="#dcdcdc" points="1166.5,-306.3005 914.5,-306.3005 914.5,-269.6995 1166.5,-269.6995 1166.5,-306.3005"/>
<text text-anchor="middle" x="1040.5" y="-291.6" font-family="Helvetica,sans-Serif" font-size="12.00" fill="#000000">Reports not retrieved</text>
<text text-anchor="middle" x="1040.5" y="-277.2" font-family="Helvetica,sans-Serif" font-size="12.00" fill="#000000">(n = 0)</text>
</a>
</g>
</g>
<!-- 17 -->
<g id="node18" class="node">
<title>17</title>
<g id="a_node18"><a xlink:title="Reports assessed for eligibility (other)">
<polygon fill="#dcdcdc" stroke="#dcdcdc" points="878.5,-216.3005 626.5,-216.3005 626.5,-179.6995 878.5,-179.6995 878.5,-216.3005"/>
<text text-anchor="middle" x="752.5" y="-201.6" font-family="Helvetica,sans-Serif" font-size="12.00" fill="#000000">Reports assessed for eligibility</text>
<text text-anchor="middle" x="752.5" y="-187.2" font-family="Helvetica,sans-Serif" font-size="12.00" fill="#000000">(n = 0)</text>
</a>
</g>
</g>
<!-- 18 -->
<g id="node19" class="node">
<title>18</title>
<g id="a_node19"><a xlink:title="Reports excluded (other)">
<polygon fill="#dcdcdc" stroke="#dcdcdc" points="1166.5,-234 914.5,-234 914.5,-162 1166.5,-162 1166.5,-234"/>
<text text-anchor="middle" x="1040.5" y="-216" font-family="Helvetica,sans-Serif" font-size="12.00" fill="#000000">Reports excluded:</text>
<text text-anchor="middle" x="1040.5" y="-201.6" font-family="Helvetica,sans-Serif" font-size="12.00" fill="#000000">Reason1 (n = NA)</text>
<text text-anchor="middle" x="1040.5" y="-187.2" font-family="Helvetica,sans-Serif" font-size="12.00" fill="#000000">Reason2 (n = NA)</text>
<text text-anchor="middle" x="1040.5" y="-172.8" font-family="Helvetica,sans-Serif" font-size="12.00" fill="#000000">Reason3 (n = NA)</text>
</a>
</g>
</g>
<!-- B -->
<g id="node20" class="node">
<title>B</title>
<polygon fill="none" stroke="#ffffff" points="753,-54.5 752,-54.5 752,-53.5 753,-53.5 753,-54.5"/>
</g>
<!-- C -->
</g>
</svg>

